<?xml version="1.0" encoding="UTF-8" standalone="no"?>
<!-- Created with Inkscape (http://www.inkscape.org/) -->

<svg
   version="1.1"
   id="svg914"
   width="297"
   height="33"
   viewBox="0 0 297 33"
   sodipodi:docname="player.svg"
   inkscape:version="1.1.2 (0a00cf5339, 2022-02-04)"
   xmlns:inkscape="http://www.inkscape.org/namespaces/inkscape"
   xmlns:sodipodi="http://sodipodi.sourceforge.net/DTD/sodipodi-0.dtd"
   xmlns="http://www.w3.org/2000/svg"
   xmlns:svg="http://www.w3.org/2000/svg">
  <defs
     id="defs918" />
  <sodipodi:namedview
     id="namedview916"
     pagecolor="#ffffff"
     bordercolor="#666666"
     borderopacity="1.0"
     inkscape:pageshadow="2"
     inkscape:pageopacity="0.0"
     inkscape:pagecheckerboard="0"
     showgrid="false"
     inkscape:zoom="0.83091"
     inkscape:cx="359.84643"
     inkscape:cy="102.89923"
     inkscape:window-width="1920"
     inkscape:window-height="1016"
     inkscape:window-x="0"
     inkscape:window-y="0"
     inkscape:window-maximized="1"
     inkscape:current-layer="g920"
     inkscape:snap-global="false" />
  <g
     inkscape:groupmode="layer"
     inkscape:label="Image"
     id="g920">
    <rect
       style="fill:#d8d700;stroke:none;stroke-width:2.44719"
       id="rect1130"
       width="33"
       height="33"
       x="-0.010205411"
       y="-33" />
    <rect
       style="fill:#808000;stroke:none;stroke-width:2.44719"
       id="rect1230"
       width="33"
       height="33"
       x="33.000008"
       y="-33" />
    <rect
       style="fill:#d8d700;stroke:none;stroke-width:2.44719"
       id="rect1332"
       width="33"
       height="33"
       x="66.000008"
       y="-33" />
    <rect
       style="fill:#808000;stroke:none;stroke-width:2.44719"
       id="rect1334"
       width="33"
       height="33"
       x="98.849571"
       y="-33" />
    <rect
       style="fill:#d8d700;stroke:none;stroke-width:2.44719"
       id="rect1336"
       width="33"
       height="33"
       x="132"
       y="-33" />
    <rect
       style="fill:#808000;stroke:none;stroke-width:2.44719"
       id="rect1338"
       width="33"
       height="33"
       x="165"
       y="-33" />
    <circle
       style="fill:#a700e2;fill-opacity:1;stroke:none;stroke-width:2.11755"
       id="path1026"
       cx="148.5"
       cy="-14.980822"
       r="14.980822" />
    <rect
       style="fill:#d8d700;stroke:none;stroke-width:2.44719"
       id="rect1340"
       width="33"
       height="33"
       x="198"
       y="-33" />
    <rect
       style="fill:#808000;stroke:none;stroke-width:2.44719"
       id="rect1342"
       width="33"
       height="33"
       x="231"
       y="-33" />
    <rect
       style="fill:#d8d700;stroke:none;stroke-width:2.44719"
       id="rect1344"
       width="33"
       height="33"
       x="264"
       y="-33" />
    <rect
       style="fill:#808000;stroke:none;stroke-width:2.44719"
       id="rect1346"
       width="33"
       height="33"
       x="297"
       y="-33" />
    <rect
       style="fill:#d8d700;stroke:none;stroke-width:2.44719"
       id="rect1348"
       width="33"
       height="33"
       x="396"
       y="-33" />
    <rect
       style="fill:#808000;stroke:none;stroke-width:2.44719"
       id="rect1350"
       width="33"
       height="33"
       x="462"
       y="-33" />
    <rect
       style="fill:#d8d700;stroke:none;stroke-width:2.44719"
       id="rect1352"
       width="33"
       height="33"
       x="495"
       y="-33" />
    <path
       id="circle3766"
       style="fill:#a700e2;stroke-width:2.11755"
       d="M 196.76935,-14.772208 C 198.49559,-6.680616 191.85237,0.0830795 181.5,0 c -10.29947,-0.08265499 -14.98082,-6.7071433 -14.98082,-14.980822 0,-8.273678 4.20318,-14.662316 12.47686,-14.662317 8.27368,1e-6 15.99745,6.546716 17.77331,14.870931 z"
       sodipodi:nodetypes="sssss" />
    <path
       id="path4072"
       style="fill:#a700e2;stroke-width:2.11755"
       d="M 196.76935,-14.772208 C 198.49559,-6.680616 191.85237,0.0830795 181.5,0 c -10.29947,-0.08265499 -14.98082,-6.7071433 -14.98082,-14.980822 0,-8.273678 4.20318,-14.662316 12.47686,-14.662317 8.27368,1e-6 15.99745,6.546716 17.77331,14.870931 z"
       sodipodi:nodetypes="sssss" />
    <path
       id="path4154"
       style="fill:#a700e2;stroke-width:2.11755"
       d="m 228.75857,-16.069814 c 2.91046,7.2493648 -2.29345,14.0916721 -14.32677,15.76885616 C 198.36753,1.938053 199.46685,-8.7804422 199.46685,-17.054121 c 0,-8.273678 4.16642,-13.76592 11.05168,-9.894123 10.29195,5.787487 15.27637,3.496518 18.24004,10.87843 z"
       sodipodi:nodetypes="sssss" />
    <path
       id="path4787"
       style="fill:#a700e2;stroke-width:2.11755"
       d="m 261.65015,-15.769793 c 3.17159,7.6416453 -4.74596,14.85560089 -14.32677,15.76885645215 C 231.07366,1.5480081 231.54434,-7.1076678 232.63991,-15.30849 c 0.75219,-5.630444 3.98828,-14.395343 11.96443,-12.196553 7.27762,2.006225 13.99652,4.388291 17.04581,11.73525 z"
       sodipodi:nodetypes="sssss" />
    <path
       id="path6513"
       style="fill:#a700e2;stroke-width:2.11755"
       d="M 295.4889,-14.772965 C 297.21514,-6.6813733 290.57192,0.08232219 280.21955,-7.5730869e-4 269.92008,-0.08341231 265.23873,-6.7079006 265.23873,-14.981579 c 0,-8.273678 4.20318,-14.662316 12.47686,-14.662317 8.27368,1e-6 15.99745,6.546716 17.77331,14.870931 z"
       sodipodi:nodetypes="sssss" />
    <circle
       style="fill:#a700e2;fill-opacity:1;stroke:none;stroke-width:2.11755"
       id="circle6515"
       cx="313.5"
       cy="-14.980822"
       r="14.980822" />
    <rect
       style="fill:#808000;stroke:none;stroke-width:2.44719"
       id="rect6517"
       width="33"
       height="33"
       x="-33"
       y="-33" />
    <path
       id="path6519"
       style="fill:#a700e2;stroke-width:2.11755"
       d="M 100.36068,-14.772965 C 98.634436,-6.6813733 105.27766,0.08232268 115.63003,-7.573177e-4 125.9295,-0.08341732 130.61085,-6.7079003 130.61085,-14.981579 c 0,-8.273678 -4.20318,-14.662316 -12.47686,-14.662317 -8.27368,1e-6 -15.99745,6.546716 -17.77331,14.870931 z"
       sodipodi:nodetypes="sssss" />
    <path
       id="path6521"
       style="fill:#a700e2;stroke-width:2.11755"
       d="m 68.241441,-16.069814 c -2.91046,7.2493651 2.29345,14.0916721 14.326766,15.76885612 16.06427,2.23901098 14.96495,-8.47948402 14.96495,-16.75316312 0,-8.273678 -4.16642,-13.76592 -11.05168,-9.894123 -10.29195,5.787487 -15.27637,3.496518 -18.240036,10.87843 z"
       sodipodi:nodetypes="sssss" />
    <path
       id="path6523"
       style="fill:#a700e2;stroke-width:2.11755"
       d="m 35.119635,-15.950152 c -3.17159,7.641646 4.74596,14.8556011 14.32677,15.76885705 16.24972,1.54894395 15.77904,-7.10673205 14.68347,-15.30755405 -0.75219,-5.630444 -3.98828,-14.395343 -11.96443,-12.196553 -7.27762,2.006225 -13.99652,4.388291 -17.04581,11.73525 z"
       sodipodi:nodetypes="sssss" />
    <path
       id="path6525"
       style="fill:#a700e2;stroke-width:2.11755"
       d="M 1.5008975,-14.772965 C -0.2253425,-6.6813733 6.4178775,0.0823217 16.770247,-7.5729967e-4 27.069717,-0.0834173 31.75107,-6.7079003 31.75107,-14.981579 c 0,-8.273678 -4.203182,-14.662316 -12.476863,-14.662317 -8.27368,1e-6 -15.9974495,6.546716 -17.7733095,14.870931 z"
       sodipodi:nodetypes="sssss" />
    <circle
       style="fill:#a700e2;fill-opacity:1;stroke:none;stroke-width:2.11755"
       id="circle6527"
       cx="16.5"
       cy="-14.980822"
       r="14.980822"
       transform="scale(-1,1)" />
    <circle
       style="fill:#a700e2;fill-opacity:1;stroke:none;stroke-width:2.11755"
       id="circle6529"
       cx="148.5"
       cy="-14.980822"
       r="14.980822" />
    <path
       id="circle6531"
       style="fill:#a700e2;stroke-width:2.11755"
       d="M 427.48082,-14.980824 C 427.48082,-6.7071446 423.03307,0.47747435 412.5,-1.6484375e-6 401.09015,-0.51722265 397.51918,-6.7071446 397.51918,-14.980824 c 0,-3.0235 2.96543,-6.254925 2.96543,-6.254925 0.86758,-3.356952 6.70708,-6.42434 12.78329,-5.71913 7.03409,0.816384 11.45726,1.231418 12.00776,6.164434 0,0 2.20516,3.516508 2.20516,5.809621 z"
       sodipodi:nodetypes="sssssss" />
    <path
       id="path7411"
       style="fill:#a700e2;stroke-width:2.11755"
       d="M 493.48082,-15.003343 C 493.92853,-4.4275756 489.03307,0.45495535 478.5,-0.02252065 467.09015,-0.53974165 463.48677,-2.7592866 463.94136,-15.382721 c 0.0257,-0.713133 0.93706,-1.754796 0.93706,-1.754796 0.0331,-1.223557 1.48527,-1.659159 1.48527,-1.659159 0.86758,-3.356952 6.70708,-6.42434 12.78329,-5.71913 7.03409,0.816384 11.45726,1.231418 12.00776,6.164434 0,0 1.20039,0.302856 1.23892,1.61835 0,0 1.04092,0.637484 1.08716,1.729679 z"
       sodipodi:nodetypes="sssssssss" />
    <path
       id="path8291"
       style="fill:#a700e2;stroke-width:2.11755"
       d="m 526.32057,-11.282902 c 0.0763,1.8013484 0.6958,4.3643094 -0.24128,4.6224214 0,0 0.13911,1.063583 0.0437,1.760702 -0.17725,1.294383 -1.42363,1.070588 -1.54649,1.903404 -0.29261,1.983495 -6.66413,3.26453595 -13.28283,2.96450295 -8.0499,-0.364911 -11.83746,0.367961 -13.41872,-3.65405695 -0.16183,-0.411626 -1.47014,-0.219942 -1.06003,-2.178507 0,0 -1.011,-0.543268 -0.68901,-1.75429 0.31171,-1.172343 0.59564,-2.3881364 0.65525,-4.0435544 0.0257,-0.713134 0.93706,-1.754796 0.93706,-1.754796 0.0331,-1.223557 1.48527,-1.659159 1.48527,-1.659159 0.86758,-3.356952 6.70708,-6.42434 12.78329,-5.71913 7.03409,0.816384 11.45726,1.231418 12.00776,6.164434 0,0 1.20039,0.302856 1.23892,1.61835 0,0 1.04092,0.637484 1.08716,1.729679 z"
       sodipodi:nodetypes="sssssscssssssss" />
    <rect
       style="fill:#808000;stroke:none;stroke-width:2.44719"
       id="rect10292"
       width="33"
       height="33"
       x="594"
       y="-33" />
    <path
       id="path10294"
       style="fill:#a700e2;stroke-width:1.94005"
       d="m 625.30382,-7.9305606 c 5e-5,0 0.88532,2.113493 -0.0518,2.330146 0,0 0.13911,0.89275 0.0437,1.477897 -0.17725,1.086477 -1.42363,0.898629 -1.54649,1.597677 -0.29261,1.66490295 -6.66413,2.74018195 -13.28283,2.48834095 -8.0499,-0.306299 -11.83746,0.308858 -13.41872,-3.06713795 -0.16183,-0.34551 -1.47014,-0.184615 -1.06003,-1.828593 0,0 -1.011,-0.456008 -0.68901,-1.472515 0.31171,-0.98404 0.40612,-0.454734 0.46573,-1.844256 0.0257,-0.59859 0.93706,-1.472939 0.93706,-1.472939 0.0331,-1.0270284 1.48527,-1.3926634 1.48527,-1.3926634 0.86758,-2.817756 6.70708,-5.392456 12.78329,-4.800518 7.03409,0.685256 11.45726,1.033627 12.00776,5.174297 0,0 1.20039,0.25421 1.23892,1.3584094 0,0 2.18034,1.451855 1.08716,1.451855 z"
       sodipodi:nodetypes="cssssscssssssssc" />
    <rect
       style="fill:#d8d700;stroke:none;stroke-width:2.44719"
       id="rect10585"
       width="33"
       height="33"
       x="660"
       y="-33" />
    <path
       id="path10587"
       style="fill:#a700e2;stroke-width:1.63592"
       d="m 692.21361,-5.8606706 c -0.0518,1.656838 0.88532,1.502788 -0.0518,1.656838 0,0 0.13911,0.634786 0.0437,1.050851 -0.17725,0.772535 -1.22065,0.741068 -1.54649,1.136021 -1.50258,1.82131095 -7.65258,2.23318895 -14.15149,1.99100795 -8.04726,-0.29988 -13.85672,0.291291 -15.43798,-2.10919595 -0.16183,-0.245673 -0.49157,-0.161603 -0.0815,-1.330545 0,0 -0.4035,-0.401323 -0.0815,-1.124105 0.31171,-0.699697 0.40612,-0.323337 0.46573,-1.31135 0.0257,-0.425624 0.93706,-1.047326 0.93706,-1.047326 0.0331,-0.730263 1.57212,-0.610037 1.57212,-0.610037 0.86758,-2.003552 7.30855,-3.5853794 13.38476,-3.1644844 7.03409,0.487248 12.07079,-0.08011 12.62129,2.8641004 0,0 1.20039,0.180754 1.23892,0.96589 0,0 2.18034,1.032335 1.08716,1.032335 z"
       sodipodi:nodetypes="cssssscssssssssc" />
    <rect
       style="fill:#808000;stroke:none;stroke-width:2.44719"
       id="rect11528"
       width="33"
       height="33"
       x="693"
       y="-33" />
    <path
       id="path11530"
       style="fill:#a700e2;stroke-width:1.39091"
       d="m 725.03253,-4.2634856 c -0.0518,1.197716 0.88532,1.086354 -0.0518,1.197716 0,0 0.13911,0.458881 0.0437,0.759652 -0.17725,0.558459 -1.22065,0.535712 -1.54649,0.82122 -1.50258,1.31661195 -7.65258,1.61435495 -14.15149,1.43928395 -8.04726,-0.216781 -13.85672,0.210572 -15.43798,-1.52471995 -0.16183,-0.177596 -0.49157,-0.116822 -0.0815,-0.961842 0,0 -0.4035,-0.290113 -0.0815,-0.812606 0.31171,-0.505805 0.40612,-0.233737 0.46573,-0.947965 0.0257,-0.30768 0.93706,-0.757104 0.93706,-0.757104 0.0331,-0.527901 1.57212,-0.44099 1.57212,-0.44099 0.86758,-1.448352 7.30855,-2.591842 13.38476,-2.28758 7.03409,0.352228 12.07079,-0.05791 12.62129,2.070434 0,0 1.20039,0.130667 1.23892,0.698235 0,0 2.18034,0.746266 1.08716,0.746266 z"
       sodipodi:nodetypes="cssssscssssssssc" />
    <rect
       style="fill:#d8d700;stroke:none;stroke-width:2.44719"
       id="rect39072"
       width="33"
       height="33"
       x="396"
       y="-33" />
    <rect
       style="fill:#808000;stroke:none;stroke-width:2.44719"
       id="rect39074"
       width="33"
       height="33"
       x="462"
       y="-33" />
    <rect
       style="fill:#d8d700;stroke:none;stroke-width:2.44719"
       id="rect39076"
       width="33"
       height="33"
       x="495"
       y="-33" />
    <path
       id="path39078"
       style="fill:#a700e2;stroke-width:2.11755"
       d="M 427.48082,-13.261366 C 427.94527,-5.042447 423.73573,-0.26870581 412.5,-1.6484375e-6 401.2226,0.2696991 397.6388,-4.3327512 397.51918,-13.261366 c -0.0405,-3.023229 2.96543,-6.254925 2.96543,-6.254925 0.86758,-3.356952 6.70708,-6.42434 12.78329,-5.71913 7.03409,0.816384 11.45726,1.231418 12.00776,6.164434 0,0 2.07578,3.520161 2.20516,5.809621 z"
       sodipodi:nodetypes="sssssss" />
    <path
       id="path39080"
       style="fill:#a700e2;stroke-width:2.11755"
       d="m 493.32157,-13.229826 c 0.44771,10.5757672 -4.2885,13.68478135 -14.82157,13.20730535 -11.40985,-0.517221 -15.17248,-0.96324916 -14.71789,-13.58668335 0.0257,-0.713133 0.93706,-1.754796 0.93706,-1.754796 0.0331,-1.223557 1.48527,-1.659159 1.48527,-1.659159 0.86758,-3.356952 6.70708,-6.42434 12.78329,-5.71913 7.03409,0.816384 11.45726,1.231418 12.00776,6.164434 0,0 1.20039,0.302856 1.23892,1.61835 0,0 1.04092,0.637484 1.08716,1.729679 z"
       sodipodi:nodetypes="sssssssss" />
    <path
       id="path39082"
       style="fill:#a700e2;stroke-width:2.11755"
       d="m 526.32057,-11.282902 c 0.0763,1.8013484 0.6958,4.3643094 -0.24128,4.6224214 0,0 0.13911,1.063583 0.0437,1.760702 -0.17725,1.294383 -1.42363,1.070588 -1.54649,1.903404 -0.29261,1.983495 -6.66413,3.26453595 -13.28283,2.96450295 -8.0499,-0.364911 -11.83746,0.367961 -13.41872,-3.65405695 -0.16183,-0.411626 -1.47014,-0.219942 -1.06003,-2.178507 0,0 -1.011,-0.543268 -0.68901,-1.75429 0.31171,-1.172343 0.59564,-2.3881364 0.65525,-4.0435544 0.0257,-0.713134 0.93706,-1.754796 0.93706,-1.754796 0.0331,-1.223557 1.48527,-1.659159 1.48527,-1.659159 0.86758,-3.356952 6.70708,-6.42434 12.78329,-5.71913 7.03409,0.816384 11.45726,1.231418 12.00776,6.164434 0,0 1.20039,0.302856 1.23892,1.61835 0,0 1.04092,0.637484 1.08716,1.729679 z"
       sodipodi:nodetypes="sssssscssssssss" />
    <rect
       style="fill:#808000;stroke:none;stroke-width:2.44719"
       id="rect39084"
       width="33"
       height="33"
       x="594"
       y="-33" />
    <path
       id="path39086"
       style="fill:#c300b1;stroke-width:1.77347;fill-opacity:1"
       d="m 625.30382,-6.6271156 c 5e-5,0 0.88532,1.7661251 -0.0518,1.9471696 0,0 0.13911,0.7460201 0.0437,1.2349939 -0.17725,0.9079067 -1.42363,0.7509328 -1.54649,1.3350873 -0.29261,1.39126406 -6.66413,2.28981317 -13.28283,2.07936407 -8.0499,-0.25595655 -11.83746,0.25809495 -13.41872,-2.56303167 -0.16183,-0.2887229 -1.47014,-0.1542721 -1.06003,-1.5280505 0,0 -1.011,-0.3810598 -0.68901,-1.2304965 0.31171,-0.8223059 0.40612,-0.3799951 0.46573,-1.5411392 0.0257,-0.5002074 0.93706,-1.2308508 0.93706,-1.2308508 0.0331,-0.8582289 1.48527,-1.1637695 1.48527,-1.1637695 0.86758,-2.3546371 6.70708,-4.5061671 12.78329,-4.0115181 7.03409,0.572629 11.45726,0.863743 12.00776,4.3238642 0,0 1.20039,0.2124288 1.23892,1.1351451 0,0 2.18034,1.2132321 1.08716,1.2132321 z"
       sodipodi:nodetypes="cssssscssssssssc" />
    <rect
       style="fill:#d8d700;stroke:none;stroke-width:2.44719"
       id="rect39088"
       width="33"
       height="33"
       x="660"
       y="-33" />
    <path
       id="path39090"
       style="fill:#c300b1;stroke-width:1.51751;fill-opacity:1"
       d="m 692.21361,-5.0377647 c -0.0518,1.425664 0.88532,1.2931082 -0.0518,1.425664 0,0 0.13911,0.5462161 0.0437,0.9042287 -0.17725,0.6647453 -1.22065,0.6376688 -1.54649,0.9775151 -1.50258,1.56718852 -7.65258,1.92159832 -14.15149,1.71320817 -8.04726,-0.25803858 -13.85672,0.25064797 -15.43798,-1.81490567 -0.16183,-0.211395 -0.49157,-0.139055 -0.0815,-1.1448978 0,0 -0.4035,-0.3453275 -0.0815,-0.9672617 0.31171,-0.6020703 0.40612,-0.2782227 0.46573,-1.128381 0.0257,-0.3662379 0.93706,-0.9011955 0.93706,-0.9011955 0.0331,-0.6283715 1.57212,-0.5249203 1.57212,-0.5249203 0.86758,-1.7240019 7.30855,-3.0851213 13.38476,-2.7229526 7.03409,0.4192636 12.07079,-0.068933 12.62129,2.4644804 0,0 1.20039,0.1555339 1.23892,0.831122 0,0 2.18034,0.8882962 1.08716,0.8882962 z"
       sodipodi:nodetypes="cssssscssssssssc" />
    <rect
       style="fill:#808000;stroke:none;stroke-width:2.44719"
       id="rect39092"
       width="33"
       height="33"
       x="693"
       y="-33" />
    <path
       id="path39094"
       style="fill:#e200e2;stroke-width:1.35026;fill-opacity:1"
       d="m 725.03253,-4.0179264 c -0.0518,1.1287325 0.88532,1.0237845 -0.0518,1.1287325 0,0 0.13911,0.4324513 0.0437,0.7158991 -0.17725,0.5262941 -1.22065,0.5048572 -1.54649,0.7739212 -1.50258,1.24078049 -7.65258,1.52137472 -14.15149,1.35638709 -8.04726,-0.20429531 -13.85672,0.19844392 -15.43798,-1.43690239 -0.16183,-0.1673672 -0.49157,-0.1100935 -0.0815,-0.9064438 0,0 -0.4035,-0.2734037 -0.0815,-0.7658033 0.31171,-0.4766727 0.40612,-0.2202747 0.46573,-0.8933661 0.0257,-0.2899589 0.93706,-0.713498 0.93706,-0.713498 0.0331,-0.497496 1.57212,-0.4155907 1.57212,-0.4155907 0.86758,-1.3649329 7.30855,-2.4425626 13.38476,-2.1558249 7.03409,0.3319411 12.07079,-0.054575 12.62129,1.9511856 0,0 1.20039,0.1231411 1.23892,0.6580195 0,0 2.18034,0.7032842 1.08716,0.7032842 z"
       sodipodi:nodetypes="cssssscssssssssc" />
    <rect
       style="fill:#d8d700;stroke:none;stroke-width:2.44719"
       id="rect39096"
       width="33"
       height="33"
       x="363"
       y="-33" />
    <path
       id="path39098"
       style="fill:#a700e2;stroke-width:2.11755"
       d="M 394.48082,-14.980824 C 394.48082,-6.7071446 390.03307,0.47747435 379.5,-1.6484375e-6 368.09015,-0.51722265 364.51918,-6.7071446 364.51918,-14.980824 c 0,-3.0235 2.96543,-6.254925 2.96543,-6.254925 0.86758,-3.356952 6.70708,-6.42434 12.78329,-5.71913 7.03409,0.816384 11.45726,1.231418 12.00776,6.164434 0,0 2.20516,3.516508 2.20516,5.809621 z"
       sodipodi:nodetypes="sssssss" />
    <rect
       style="fill:#d8d700;stroke:none;stroke-width:2.44719"
       id="rect39100"
       width="33"
       height="33"
       x="363"
       y="-33" />
    <path
       id="path39102"
       style="fill:#a700e2;stroke-width:2.11755"
       d="M 394.48082,-14.980824 C 394.48082,-6.7071446 390.03307,0.47747435 379.5,-1.6484375e-6 368.09015,-0.51722265 364.51918,-6.7071446 364.51918,-14.980824 c 0,-3.0235 2.96543,-6.254925 2.96543,-6.254925 0.86758,-3.356952 6.70708,-6.42434 12.78329,-5.71913 7.03409,0.816384 11.45726,1.231418 12.00776,6.164434 0,0 2.20516,3.516508 2.20516,5.809621 z"
       sodipodi:nodetypes="sssssss" />
    <rect
       style="fill:#808000;stroke:none;stroke-width:2.44719"
       id="rect39104"
       width="33"
       height="33"
       x="429"
       y="-33" />
    <path
       id="path39106"
       style="fill:#a700e2;stroke-width:2.11755"
       d="M 460.48082,-15.003343 C 460.92853,-4.4275756 456.03307,0.45495535 445.5,-0.02252065 434.09015,-0.53974165 430.48677,-2.7592866 430.94136,-15.382721 c 0.0257,-0.713133 0.93706,-1.754796 0.93706,-1.754796 0.0331,-1.223557 1.48527,-1.659159 1.48527,-1.659159 0.86758,-3.356952 6.70708,-6.42434 12.78329,-5.71913 7.03409,0.816384 11.45726,1.231418 12.00776,6.164434 0,0 1.20039,0.302856 1.23892,1.61835 0,0 1.04092,0.637484 1.08716,1.729679 z"
       sodipodi:nodetypes="sssssssss" />
    <rect
       style="fill:#808000;stroke:none;stroke-width:2.44719"
       id="rect39108"
       width="33"
       height="33"
       x="429"
       y="-33" />
    <path
       id="path39110"
       style="fill:#a700e2;stroke-width:2.11755"
       d="M 460.48082,-15.003343 C 460.92853,-4.4275756 456.03307,0.45495535 445.5,-0.02252065 434.09015,-0.53974165 430.48677,-2.7592866 430.94136,-15.382721 c 0.0257,-0.713133 0.93706,-1.754796 0.93706,-1.754796 0.0331,-1.223557 1.48527,-1.659159 1.48527,-1.659159 0.86758,-3.356952 6.70708,-6.42434 12.78329,-5.71913 7.03409,0.816384 11.45726,1.231418 12.00776,6.164434 0,0 1.20039,0.302856 1.23892,1.61835 0,0 1.04092,0.637484 1.08716,1.729679 z"
       sodipodi:nodetypes="sssssssss" />
    <rect
       style="fill:#d8d700;stroke:none;stroke-width:2.44719"
       id="rect39112"
       width="33"
       height="33"
       x="528"
       y="-33" />
    <path
       id="path39114"
       style="fill:#a700e2;stroke-width:2.11755"
       d="m 559.32057,-11.282902 c 0.0763,1.8013484 0.6958,4.3643094 -0.24128,4.6224214 0,0 0.13911,1.063583 0.0437,1.760702 -0.17725,1.294383 -1.42363,1.070588 -1.54649,1.903404 -0.29261,1.983495 -6.66413,3.26453595 -13.28283,2.96450295 -8.0499,-0.364911 -11.83746,0.367961 -13.41872,-3.65405695 -0.16183,-0.411626 -1.47014,-0.219942 -1.06003,-2.178507 0,0 -1.011,-0.543268 -0.68901,-1.75429 0.31171,-1.172343 0.59564,-2.3881364 0.65525,-4.0435544 0.0257,-0.713134 0.93706,-1.754796 0.93706,-1.754796 0.0331,-1.223557 1.48527,-1.659159 1.48527,-1.659159 0.86758,-3.356952 6.70708,-6.42434 12.78329,-5.71913 7.03409,0.816384 11.45726,1.231418 12.00776,6.164434 0,0 1.20039,0.302856 1.23892,1.61835 0,0 1.04092,0.637484 1.08716,1.729679 z"
       sodipodi:nodetypes="sssssscssssssss" />
    <rect
       style="fill:#d8d700;stroke:none;stroke-width:2.44719"
       id="rect39116"
       width="33"
       height="33"
       x="528"
       y="-33" />
    <path
       id="path39118"
       style="fill:#c300b9;stroke-width:2.11755;fill-opacity:1"
       d="m 559.51391,-9.7426808 c -1.80297,0 0.50246,2.8240882 -0.43462,3.0822002 0,0 0.13911,1.063583 0.0437,1.760702 -0.17725,1.294383 -0.59446,1.070588 -0.71732,1.903404 -0.29261,1.983495 -7.4933,3.26453595 -14.112,2.96450295 -8.0499,-0.364911 -11.90328,0.85805808 -13.48454,-3.16395985 -0.16183,-0.411626 -1.40432,-0.7100391 -0.99421,-2.6686041 0,0 -1.011,-0.543268 -0.68901,-1.75429 0.31171,-1.172343 0.78898,-0.8479152 0.84859,-2.5033334 0.0257,-0.713134 0.93706,-1.754796 0.93706,-1.754796 0.0331,-1.223557 1.48527,-1.659159 1.48527,-1.659159 0.86758,-3.356952 6.70708,-5.421815 12.78329,-4.716605 7.03409,0.816384 11.45726,0.228893 12.00776,5.161909 0,0 1.20039,0.302856 1.23892,1.61835 0,0 2.18033,1.7296792 1.08716,1.7296792 z"
       sodipodi:nodetypes="sssssscsssssssss" />
    <rect
       style="fill:#808000;stroke:none;stroke-width:2.44719"
       id="rect39120"
       width="33"
       height="33"
       x="561"
       y="-33" />
    <path
       id="path39122"
       style="fill:#a700e2;stroke-width:1.94005"
       d="m 592.30382,-7.9305606 c 5e-5,0 0.88532,2.113493 -0.0518,2.330146 0,0 0.13911,0.89275 0.0437,1.477897 -0.17725,1.086477 -1.42363,0.898629 -1.54649,1.597677 -0.29261,1.66490295 -6.66413,2.74018195 -13.28283,2.48834095 -8.0499,-0.306299 -11.83746,0.308858 -13.41872,-3.06713795 -0.16183,-0.34551 -1.47014,-0.184615 -1.06003,-1.828593 0,0 -1.011,-0.456008 -0.68901,-1.472515 0.31171,-0.98404 0.40612,-0.454734 0.46573,-1.844256 0.0257,-0.59859 0.93706,-1.472939 0.93706,-1.472939 0.0331,-1.0270284 1.48527,-1.3926634 1.48527,-1.3926634 0.86758,-2.817756 6.70708,-5.392456 12.78329,-4.800518 7.03409,0.685256 11.45726,1.033627 12.00776,5.174297 0,0 1.20039,0.25421 1.23892,1.3584094 0,0 2.18034,1.451855 1.08716,1.451855 z"
       sodipodi:nodetypes="cssssscssssssssc" />
    <rect
       style="fill:#808000;stroke:none;stroke-width:2.44719"
       id="rect39124"
       width="33"
       height="33"
       x="561"
       y="-33" />
    <path
       id="path39126"
       style="fill:#c300b1;stroke-width:1.94005;fill-opacity:1"
       d="m 592.30382,-7.9305606 c 5e-5,0 0.88532,2.113493 -0.0518,2.330146 0,0 0.13911,0.89275 0.0437,1.477897 -0.17725,1.086477 -1.42363,0.898629 -1.54649,1.597677 -0.29261,1.66490295 -6.66413,2.74018195 -13.28283,2.48834095 -8.0499,-0.306299 -11.83746,0.308858 -13.41872,-3.06713795 -0.16183,-0.34551 -1.47014,-0.184615 -1.06003,-1.828593 0,0 -1.011,-0.456008 -0.68901,-1.472515 0.31171,-0.98404 0.40612,-0.454734 0.46573,-1.844256 0.0257,-0.59859 0.93706,-1.472939 0.93706,-1.472939 0.0331,-1.0270284 1.48527,-1.3926634 1.48527,-1.3926634 0.86758,-2.817756 6.70708,-5.392456 12.78329,-4.800518 7.03409,0.685256 11.45726,1.033627 12.00776,5.174297 0,0 1.20039,0.25421 1.23892,1.3584094 0,0 2.18034,1.451855 1.08716,1.451855 z"
       sodipodi:nodetypes="cssssscssssssssc" />
    <rect
       style="fill:#d8d700;stroke:none;stroke-width:2.44719"
       id="rect39128"
       width="33"
       height="33"
       x="627"
       y="-33" />
    <path
       id="path39130"
       style="fill:#a700e2;stroke-width:1.63592"
       d="m 659.21361,-5.8606706 c -0.0518,1.656838 0.88532,1.502788 -0.0518,1.656838 0,0 0.13911,0.634786 0.0437,1.050851 -0.17725,0.772535 -1.22065,0.741068 -1.54649,1.136021 -1.50258,1.82131095 -7.65258,2.23318895 -14.15149,1.99100795 -8.04726,-0.29988 -13.85672,0.291291 -15.43798,-2.10919595 -0.16183,-0.245673 -0.49157,-0.161603 -0.0815,-1.330545 0,0 -0.4035,-0.401323 -0.0815,-1.124105 0.31171,-0.699697 0.40612,-0.323337 0.46573,-1.31135 0.0257,-0.425624 0.93706,-1.047326 0.93706,-1.047326 0.0331,-0.730263 1.57212,-0.610037 1.57212,-0.610037 0.86758,-2.003552 7.30855,-3.5853794 13.38476,-3.1644844 7.03409,0.487248 12.07079,-0.08011 12.62129,2.8641004 0,0 1.20039,0.180754 1.23892,0.96589 0,0 2.18034,1.032335 1.08716,1.032335 z"
       sodipodi:nodetypes="cssssscssssssssc" />
    <rect
       style="fill:#d8d700;stroke:none;stroke-width:2.44719"
       id="rect39132"
       width="33"
       height="33"
       x="627"
       y="-33" />
    <path
       id="path39134"
       style="fill:#c300b1;stroke-width:1.63592;fill-opacity:1"
       d="m 659.21361,-5.8606706 c -0.0518,1.656838 0.88532,1.502788 -0.0518,1.656838 0,0 0.13911,0.634786 0.0437,1.050851 -0.17725,0.772535 -1.22065,0.741068 -1.54649,1.136021 -1.50258,1.82131095 -7.65258,2.23318895 -14.15149,1.99100795 -8.04726,-0.29988 -13.85672,0.291291 -15.43798,-2.10919595 -0.16183,-0.245673 -0.49157,-0.161603 -0.0815,-1.330545 0,0 -0.4035,-0.401323 -0.0815,-1.124105 0.31171,-0.699697 0.40612,-0.323337 0.46573,-1.31135 0.0257,-0.425624 0.93706,-1.047326 0.93706,-1.047326 0.0331,-0.730263 1.57212,-0.610037 1.57212,-0.610037 0.86758,-2.003552 7.30855,-3.5853794 13.38476,-3.1644844 7.03409,0.487248 12.07079,-0.08011 12.62129,2.8641004 0,0 1.20039,0.180754 1.23892,0.96589 0,0 2.18034,1.032335 1.08716,1.032335 z"
       sodipodi:nodetypes="cssssscssssssssc" />
    <rect
       style="fill:#808000;stroke:none;stroke-width:2.44719"
       id="rect39136"
       width="33"
       height="33"
       x="726"
       y="-33" />
    <path
       id="path39138"
       style="fill:#a700e2;stroke-width:1.39091"
       d="m 758.03248,-4.2634856 c -0.0518,1.197715 0.88532,1.086353 -0.0518,1.197715 0,0 0.13911,0.458882 0.0437,0.759653 -0.17725,0.558458 -1.22065,0.535711 -1.54649,0.82122 -1.50258,1.31661095 -7.65258,1.61435395 -14.15149,1.43928395 -8.04726,-0.216781 -13.85672,0.210572 -15.43798,-1.52472095 -0.16183,-0.177596 -0.49157,-0.116821 -0.0815,-0.961841 0,0 -0.4035,-0.290113 -0.0815,-0.812607 0.31171,-0.505804 0.40612,-0.233737 0.46573,-0.947964 0.0257,-0.307681 0.93706,-0.757104 0.93706,-0.757104 0.0331,-0.527901 1.57212,-0.440991 1.57212,-0.440991 0.86758,-1.448352 7.30855,-2.591842 13.38476,-2.28758 7.03409,0.352228 12.07079,-0.05791 12.62129,2.070435 0,0 1.20039,0.130666 1.23892,0.698234 0,0 2.18034,0.746267 1.08716,0.746267 z"
       sodipodi:nodetypes="cssssscssssssssc" />
    <rect
       style="fill:#808000;stroke:none;stroke-width:2.44719"
       id="rect39140"
       width="33"
       height="33"
       x="726"
       y="-33" />
    <path
       id="path39142"
       style="fill:#e200e2;stroke-width:1.21629;fill-opacity:1"
       d="m 758.03248,-3.2602012 c -0.0518,0.9158684 0.88532,0.8307122 -0.0518,0.9158684 0,0 0.13911,0.3508978 0.0437,0.5808913 -0.17725,0.4270415 -1.22065,0.4096473 -1.54649,0.6279703 -1.50258,1.00678564 -7.65258,1.23446367 -14.15149,1.10059119 -8.04726,-0.16576804 -13.85672,0.16102014 -15.43798,-1.16592319 -0.16183,-0.135804 -0.49157,-0.08933 -0.0815,-0.7355003 0,0 -0.4035,-0.2218435 -0.0815,-0.6213841 0.31171,-0.3867781 0.40612,-0.1787339 0.46573,-0.7248889 0.0257,-0.2352774 0.93706,-0.578942 0.93706,-0.578942 0.0331,-0.4036752 1.57212,-0.3372169 1.57212,-0.3372169 0.86758,-1.1075254 7.30855,-1.9819291 13.38476,-1.749266 7.03409,0.2693416 12.07079,-0.044282 12.62129,1.5832196 0,0 1.20039,0.099918 1.23892,0.5339254 0,0 2.18034,0.5706552 1.08716,0.5706552 z"
       sodipodi:nodetypes="cssssscssssssssc" />
    <rect
       style="fill:#808000;stroke:none;stroke-width:2.44719"
       id="rect39144"
       width="33"
       height="33"
       x="330"
       y="-33" />
    <path
       id="circle39146"
       style="fill:#a700e2;stroke-width:2.11755"
       d="M 361.48082,-14.980822 C 361.48082,-6.7071433 354.77368,-1.1045694e-6 346.5,0 c -8.27368,-1.1045694e-6 -14.98082,-6.7071433 -14.98082,-14.980822 0,-8.273678 6.62985,-13.358596 14.90353,-13.358597 8.27368,1e-6 15.05811,5.084919 15.05811,13.358597 z"
       sodipodi:nodetypes="sssss" />
    <rect
       style="fill:none;stroke:none;stroke-width:11.9887"
       id="rect46817"
       width="792"
       height="33"
       x="-81.830505"
       y="159.08336"
       inkscape:export-filename="/home/beghelli/dev/gamedev.js-jam-2023/tests/platform/dist/assets/player.png"
       inkscape:export-xdpi="96"
       inkscape:export-ydpi="96" />
    <circle
       style="fill:#a700e2;fill-opacity:1;stroke:none;stroke-width:2.11755"
       id="circle41587"
       cx="99.58728"
       cy="176.82724"
       r="14.980822"
       inkscape:export-filename="/home/beghelli/dev/gamedev.js-jam-2023/tests/platform/dist/assets/player.png"
       inkscape:export-xdpi="96"
       inkscape:export-ydpi="96" />
    <path
       id="path41603"
       style="fill:#a700e2;stroke-width:2.11755"
       d="m 147.85663,177.03586 c 1.72624,8.09159 -4.91698,14.85529 -15.26935,14.77221 -10.29947,-0.0827 -14.98082,-6.70715 -14.98082,-14.98082 0,-8.27368 4.20318,-14.66232 12.47686,-14.66232 8.27368,0 15.99745,6.54671 17.77331,14.87093 z"
       sodipodi:nodetypes="sssss"
       inkscape:export-filename="/home/beghelli/dev/gamedev.js-jam-2023/tests/platform/dist/assets/player.png"
       inkscape:export-xdpi="96"
       inkscape:export-ydpi="96" />
    <path
       id="path41605"
       style="fill:#a700e2;stroke-width:2.11755"
       d="m 147.85663,177.03586 c 1.72624,8.09159 -4.91698,14.85529 -15.26935,14.77221 -10.29947,-0.0827 -14.98082,-6.70715 -14.98082,-14.98082 0,-8.27368 4.20318,-14.66232 12.47686,-14.66232 8.27368,0 15.99745,6.54671 17.77331,14.87093 z"
       sodipodi:nodetypes="sssss"
       inkscape:export-filename="/home/beghelli/dev/gamedev.js-jam-2023/tests/platform/dist/assets/player.png"
       inkscape:export-xdpi="96"
       inkscape:export-ydpi="96" />
    <path
       id="path41607"
       style="fill:#a700e2;stroke-width:2.11755"
       d="m 179.84585,175.73825 c 2.91046,7.24937 -2.29345,14.09168 -14.32677,15.76886 -16.06427,2.23901 -16.03327,-4.64041 -14.96495,-16.75316 0.7269,-8.24169 3.55703,-12.38967 11.05168,-9.89413 7.47633,2.48944 15.27637,3.49652 18.24004,10.87843 z"
       sodipodi:nodetypes="sssss"
       inkscape:export-filename="/home/beghelli/dev/gamedev.js-jam-2023/tests/platform/dist/assets/player.png"
       inkscape:export-xdpi="96"
       inkscape:export-ydpi="96" />
    <path
       id="path41609"
       style="fill:#a700e2;stroke-width:2.11755"
       d="m 212.73743,176.03827 c 3.17159,7.64165 -4.74596,14.85561 -14.32677,15.76886 -16.24972,1.54895 -15.77904,-7.10673 -14.68347,-15.30755 0.75219,-5.63045 3.98828,-14.39535 11.96443,-12.19656 7.27762,2.00623 13.99652,4.3883 17.04581,11.73525 z"
       sodipodi:nodetypes="sssss"
       inkscape:export-filename="/home/beghelli/dev/gamedev.js-jam-2023/tests/platform/dist/assets/player.png"
       inkscape:export-xdpi="96"
       inkscape:export-ydpi="96" />
    <path
       id="path41611"
       style="fill:#a700e2;stroke-width:2.11755"
       d="m 246.57618,177.0351 c 1.72624,8.09159 -4.91698,14.85529 -15.26935,14.77221 -10.29947,-0.0827 -14.98082,-6.70714 -14.98082,-14.98082 0,-8.27368 4.20318,-14.66232 12.47686,-14.66232 8.27368,0 15.99745,6.54672 17.77331,14.87093 z"
       sodipodi:nodetypes="sssss"
       inkscape:export-filename="/home/beghelli/dev/gamedev.js-jam-2023/tests/platform/dist/assets/player.png"
       inkscape:export-xdpi="96"
       inkscape:export-ydpi="96" />
    <circle
       style="fill:#a700e2;fill-opacity:1;stroke:none;stroke-width:2.11755"
       id="circle41613"
       cx="264.58728"
       cy="176.82724"
       r="14.980822"
       inkscape:export-filename="/home/beghelli/dev/gamedev.js-jam-2023/tests/platform/dist/assets/player.png"
       inkscape:export-xdpi="96"
       inkscape:export-ydpi="96" />
    <path
       id="path41617"
       style="fill:#a700e2;stroke-width:2.11755"
       d="m 51.447961,177.0351 c -1.726244,8.09159 4.91698,14.85529 15.26935,14.77221 10.29947,-0.0827 14.98082,-6.70714 14.98082,-14.98082 0,-8.27368 -4.20318,-14.66232 -12.47686,-14.66232 -8.27368,0 -15.99745,6.54672 -17.77331,14.87093 z"
       sodipodi:nodetypes="sssss"
       inkscape:export-filename="/home/beghelli/dev/gamedev.js-jam-2023/tests/platform/dist/assets/player.png"
       inkscape:export-xdpi="96"
       inkscape:export-ydpi="96" />
    <path
       id="path41619"
       style="fill:#a700e2;stroke-width:2.11755"
       d="m 19.328722,175.73825 c -2.91046,7.24937 2.29345,14.09168 14.326766,15.76886 16.06427,2.23901 15.817199,-5.40374 14.96495,-16.75316 -0.619542,-8.25045 -3.602781,-12.5231 -11.05168,-9.89413 -11.742976,4.14449 -15.27637,3.49652 -18.240036,10.87843 z"
       sodipodi:nodetypes="sssss"
       inkscape:export-filename="/home/beghelli/dev/gamedev.js-jam-2023/tests/platform/dist/assets/player.png"
       inkscape:export-xdpi="96"
       inkscape:export-ydpi="96" />
    <path
       id="path41621"
       style="fill:#a700e2;stroke-width:2.11755"
       d="m -13.793084,175.85792 c -3.17159,7.64164 4.7145353,15.28833 14.32676967,15.76885 16.69641333,0.83466 16.23747033,-2.22269 13.99161533,-15.12056 -1.19088,-6.83918 -3.895439,-16.12941 -11.2725753,-12.38354 -7.1359972,3.62342 -13.9965197,4.38829 -17.0458097,11.73525 z"
       sodipodi:nodetypes="sssss"
       inkscape:export-filename="/home/beghelli/dev/gamedev.js-jam-2023/tests/platform/dist/assets/player.png"
       inkscape:export-xdpi="96"
       inkscape:export-ydpi="96" />
    <path
       id="path41623"
       style="fill:#a700e2;stroke-width:2.11755"
       d="m -47.411822,177.0351 c -1.72624,8.09159 4.91698,14.85529 15.26935,14.77221 10.29947,-0.0827 14.980823,-6.70714 14.980823,-14.98082 0,-8.27368 -4.203182,-14.66232 -12.476863,-14.66232 -8.27368,0 -15.99745,6.54672 -17.77331,14.87093 z"
       sodipodi:nodetypes="sssss"
       inkscape:export-filename="/home/beghelli/dev/gamedev.js-jam-2023/tests/platform/dist/assets/player.png"
       inkscape:export-xdpi="96"
       inkscape:export-ydpi="96" />
    <circle
       style="fill:#a700e2;fill-opacity:1;stroke:none;stroke-width:2.11755"
       id="circle41625"
       cx="65.41272"
       cy="176.82724"
       r="14.980822"
       transform="scale(-1,1)"
       inkscape:export-filename="/home/beghelli/dev/gamedev.js-jam-2023/tests/platform/dist/assets/player.png"
       inkscape:export-xdpi="96"
       inkscape:export-ydpi="96" />
    <circle
       style="fill:#a700e2;fill-opacity:1;stroke:none;stroke-width:2.11755"
       id="circle41627"
       cx="99.58728"
       cy="176.82724"
       r="14.980822"
       inkscape:export-filename="/home/beghelli/dev/gamedev.js-jam-2023/tests/platform/dist/assets/player.png"
       inkscape:export-xdpi="96"
       inkscape:export-ydpi="96" />
    <path
       id="path41633"
       style="fill:#a700e2;stroke-width:2.11755"
       d="m 477.40785,180.52517 c 0.0763,1.80134 0.6958,4.3643 -0.24128,4.62242 0,0 0.13911,1.06358 0.0437,1.7607 -0.17725,1.29438 -1.42363,1.07059 -1.54649,1.9034 -0.29261,1.9835 -6.66413,3.26454 -13.28283,2.96451 -8.0499,-0.36492 -11.83746,0.36796 -13.41872,-3.65406 -0.16183,-0.41163 -1.47014,-0.21994 -1.06003,-2.17851 0,0 -1.011,-0.54327 -0.68901,-1.75429 0.31171,-1.17234 0.59564,-2.38813 0.65525,-4.04355 0.0257,-0.71314 0.93706,-1.7548 0.93706,-1.7548 0.0331,-1.22356 1.48527,-1.65916 1.48527,-1.65916 0.86758,-3.35695 6.70708,-6.42434 12.78329,-5.71913 7.03409,0.81639 11.45726,1.23142 12.00776,6.16444 0,0 1.20039,0.30285 1.23892,1.61835 0,0 1.04092,0.63748 1.08716,1.72968 z"
       sodipodi:nodetypes="sssssscssssssss"
       inkscape:export-filename="/home/beghelli/dev/gamedev.js-jam-2023/tests/platform/dist/assets/player.png"
       inkscape:export-xdpi="96"
       inkscape:export-ydpi="96" />
    <path
       id="path41669"
       style="fill:#e200e2;fill-opacity:1;stroke-width:1.35026"
       d="m 676.11981,187.79014 c -0.0518,1.12873 0.88532,1.02379 -0.0518,1.12873 0,0 0.13911,0.43245 0.0437,0.7159 -0.17725,0.5263 -1.22065,0.50486 -1.54649,0.77392 -1.50258,1.24078 -7.65258,1.52138 -14.15149,1.35639 -8.04726,-0.20429 -13.85672,0.19844 -15.43798,-1.4369 -0.16183,-0.16737 -0.49157,-0.11009 -0.0815,-0.90645 0,0 -0.4035,-0.2734 -0.0815,-0.7658 0.31171,-0.47667 0.40612,-0.22027 0.46573,-0.89336 0.0257,-0.28996 0.93706,-0.7135 0.93706,-0.7135 0.0331,-0.4975 1.57212,-0.41559 1.57212,-0.41559 0.86758,-1.36494 7.30855,-2.44257 13.38476,-2.15583 7.03409,0.33194 12.07079,-0.0546 12.62129,1.95119 0,0 1.20039,0.12314 1.23892,0.65802 0,0 2.18034,0.70328 1.08716,0.70328 z"
       sodipodi:nodetypes="cssssscssssssssc"
       inkscape:export-filename="/home/beghelli/dev/gamedev.js-jam-2023/tests/platform/dist/assets/player.png"
       inkscape:export-xdpi="96"
       inkscape:export-ydpi="96" />
    <path
       id="path41653"
       style="fill:#a700e2;stroke-width:2.11755"
       d="m 378.5681,178.5467 c 0.46445,8.21892 -3.74509,12.99266 -14.98082,13.26137 -11.2774,0.2697 -14.8612,-4.33275 -14.98082,-13.26137 -0.0405,-3.02323 2.96543,-6.25492 2.96543,-6.25492 0.86758,-3.35696 6.70708,-6.42434 12.78329,-5.71913 7.03409,0.81638 11.45726,1.23141 12.00776,6.16443 0,0 2.07578,3.52016 2.20516,5.80962 z"
       sodipodi:nodetypes="sssssss"
       inkscape:export-filename="/home/beghelli/dev/gamedev.js-jam-2023/tests/platform/dist/assets/player.png"
       inkscape:export-xdpi="96"
       inkscape:export-ydpi="96" />
    <path
       id="path41655"
       style="fill:#a700e2;stroke-width:2.11755"
       d="m 444.40885,178.57824 c 0.44771,10.57577 -4.2885,13.68478 -14.82157,13.20731 -11.40985,-0.51722 -15.17248,-0.96325 -14.71789,-13.58669 0.0257,-0.71313 0.93706,-1.75479 0.93706,-1.75479 0.0331,-1.22356 1.48527,-1.65916 1.48527,-1.65916 0.86758,-3.35695 6.70708,-6.42434 12.78329,-5.71913 7.03409,0.81638 11.45726,1.23142 12.00776,6.16443 0,0 1.20039,0.30286 1.23892,1.61835 0,0 1.04092,0.63749 1.08716,1.72968 z"
       sodipodi:nodetypes="sssssssss"
       inkscape:export-filename="/home/beghelli/dev/gamedev.js-jam-2023/tests/platform/dist/assets/player.png"
       inkscape:export-xdpi="96"
       inkscape:export-ydpi="96" />
    <path
       id="path41657"
       style="fill:#a700e2;stroke-width:2.11755"
       d="m 477.40785,180.52517 c 0.0763,1.80134 0.6958,4.3643 -0.24128,4.62242 0,0 0.13911,1.06358 0.0437,1.7607 -0.17725,1.29438 -1.42363,1.07059 -1.54649,1.9034 -0.29261,1.9835 -6.66413,3.26454 -13.28283,2.96451 -8.0499,-0.36492 -11.83746,0.36796 -13.41872,-3.65406 -0.16183,-0.41163 -1.47014,-0.21994 -1.06003,-2.17851 0,0 -1.011,-0.54327 -0.68901,-1.75429 0.31171,-1.17234 0.59564,-2.38813 0.65525,-4.04355 0.0257,-0.71314 0.93706,-1.7548 0.93706,-1.7548 0.0331,-1.22356 1.48527,-1.65916 1.48527,-1.65916 0.86758,-3.35695 6.70708,-6.42434 12.78329,-5.71913 7.03409,0.81639 11.45726,1.23142 12.00776,6.16444 0,0 1.20039,0.30285 1.23892,1.61835 0,0 1.04092,0.63748 1.08716,1.72968 z"
       sodipodi:nodetypes="sssssscssssssss"
       inkscape:export-filename="/home/beghelli/dev/gamedev.js-jam-2023/tests/platform/dist/assets/player.png"
       inkscape:export-xdpi="96"
       inkscape:export-ydpi="96" />
    <path
       id="path41661"
       style="fill:#c300b1;fill-opacity:1;stroke-width:1.77347"
       d="m 576.3911,185.18095 c 5e-5,0 0.88532,1.76613 -0.0518,1.94717 0,0 0.13911,0.74602 0.0437,1.235 -0.17725,0.9079 -1.42363,0.75093 -1.54649,1.33508 -0.29261,1.39127 -6.66413,2.28982 -13.28283,2.07937 -8.0499,-0.25596 -11.83746,0.25809 -13.41872,-2.56303 -0.16183,-0.28873 -1.47014,-0.15428 -1.06003,-1.52806 0,0 -1.011,-0.38106 -0.68901,-1.23049 0.31171,-0.82231 0.40612,-0.38 0.46573,-1.54114 0.0257,-0.50021 0.93706,-1.23085 0.93706,-1.23085 0.0331,-0.85823 1.48527,-1.16377 1.48527,-1.16377 0.86758,-2.35464 6.70708,-4.50617 12.78329,-4.01152 7.03409,0.57263 11.45726,0.86374 12.00776,4.32386 0,0 1.20039,0.21243 1.23892,1.13515 0,0 2.18034,1.21323 1.08716,1.21323 z"
       sodipodi:nodetypes="cssssscssssssssc"
       inkscape:export-filename="/home/beghelli/dev/gamedev.js-jam-2023/tests/platform/dist/assets/player.png"
       inkscape:export-xdpi="96"
       inkscape:export-ydpi="96" />
    <path
       id="path41665"
       style="fill:#c300b1;fill-opacity:1;stroke-width:1.51751"
       d="m 643.30089,186.7703 c -0.0518,1.42567 0.88532,1.29311 -0.0518,1.42567 0,0 0.13911,0.54621 0.0437,0.90423 -0.17725,0.66474 -1.22065,0.63766 -1.54649,0.97751 -1.50258,1.56719 -7.65258,1.9216 -14.15149,1.71321 -8.04726,-0.25804 -13.85672,0.25065 -15.43798,-1.81491 -0.16183,-0.21139 -0.49157,-0.13905 -0.0815,-1.14489 0,0 -0.4035,-0.34533 -0.0815,-0.96727 0.31171,-0.60207 0.40612,-0.27822 0.46573,-1.12838 0.0257,-0.36624 0.93706,-0.90119 0.93706,-0.90119 0.0331,-0.62837 1.57212,-0.52492 1.57212,-0.52492 0.86758,-1.72401 7.30855,-3.08512 13.38476,-2.72296 7.03409,0.41927 12.07079,-0.0689 12.62129,2.46448 0,0 1.20039,0.15554 1.23892,0.83113 0,0 2.18034,0.88829 1.08716,0.88829 z"
       sodipodi:nodetypes="cssssscssssssssc"
       inkscape:export-filename="/home/beghelli/dev/gamedev.js-jam-2023/tests/platform/dist/assets/player.png"
       inkscape:export-xdpi="96"
       inkscape:export-ydpi="96" />
    <path
       id="path41673"
       style="fill:#a700e2;stroke-width:2.11755"
       d="m 345.5681,176.82724 c 0,8.27368 -4.44775,15.4583 -14.98082,14.98083 -11.40985,-0.51723 -14.98082,-6.70715 -14.98082,-14.98083 0,-3.0235 2.96543,-6.25492 2.96543,-6.25492 0.86758,-3.35695 6.70708,-6.42434 12.78329,-5.71913 7.03409,0.81638 11.45726,1.23142 12.00776,6.16443 0,0 2.20516,3.51651 2.20516,5.80962 z"
       sodipodi:nodetypes="sssssss"
       inkscape:export-filename="/home/beghelli/dev/gamedev.js-jam-2023/tests/platform/dist/assets/player.png"
       inkscape:export-xdpi="96"
       inkscape:export-ydpi="96" />
    <path
       id="path41677"
       style="fill:#a700e2;stroke-width:2.11755"
       d="m 345.5681,176.82724 c 0,8.27368 -4.44775,15.4583 -14.98082,14.98083 -11.40985,-0.51723 -14.98082,-6.70715 -14.98082,-14.98083 0,-3.0235 2.96543,-6.25492 2.96543,-6.25492 0.86758,-3.35695 6.70708,-6.42434 12.78329,-5.71913 7.03409,0.81638 11.45726,1.23142 12.00776,6.16443 0,0 2.20516,3.51651 2.20516,5.80962 z"
       sodipodi:nodetypes="sssssss"
       inkscape:export-filename="/home/beghelli/dev/gamedev.js-jam-2023/tests/platform/dist/assets/player.png"
       inkscape:export-xdpi="96"
       inkscape:export-ydpi="96" />
    <path
       id="path41681"
       style="fill:#a700e2;stroke-width:2.11755"
       d="m 411.5681,176.80472 c 0.44771,10.57577 -4.44775,15.4583 -14.98082,14.98083 -11.40985,-0.51722 -15.01323,-2.73677 -14.55864,-15.3602 0.0257,-0.71314 0.93706,-1.7548 0.93706,-1.7548 0.0331,-1.22356 1.48527,-1.65916 1.48527,-1.65916 0.86758,-3.35695 6.70708,-6.42434 12.78329,-5.71913 7.03409,0.81639 11.45726,1.23142 12.00776,6.16444 0,0 1.20039,0.30285 1.23892,1.61835 0,0 1.04092,0.63748 1.08716,1.72967 z"
       sodipodi:nodetypes="sssssssss"
       inkscape:export-filename="/home/beghelli/dev/gamedev.js-jam-2023/tests/platform/dist/assets/player.png"
       inkscape:export-xdpi="96"
       inkscape:export-ydpi="96" />
    <path
       id="path41685"
       style="fill:#a700e2;stroke-width:2.11755"
       d="m 411.5681,176.80472 c 0.44771,10.57577 -4.44775,15.4583 -14.98082,14.98083 -11.40985,-0.51722 -15.01323,-2.73677 -14.55864,-15.3602 0.0257,-0.71314 0.93706,-1.7548 0.93706,-1.7548 0.0331,-1.22356 1.48527,-1.65916 1.48527,-1.65916 0.86758,-3.35695 6.70708,-6.42434 12.78329,-5.71913 7.03409,0.81639 11.45726,1.23142 12.00776,6.16444 0,0 1.20039,0.30285 1.23892,1.61835 0,0 1.04092,0.63748 1.08716,1.72967 z"
       sodipodi:nodetypes="sssssssss"
       inkscape:export-filename="/home/beghelli/dev/gamedev.js-jam-2023/tests/platform/dist/assets/player.png"
       inkscape:export-xdpi="96"
       inkscape:export-ydpi="96" />
    <path
       id="path41693"
       style="fill:#c300b9;fill-opacity:1;stroke-width:2.11755"
       d="m 510.60119,182.06539 c -1.80297,0 0.50246,2.82408 -0.43462,3.0822 0,0 0.13911,1.06358 0.0437,1.7607 -0.17725,1.29438 -0.59446,1.07059 -0.71732,1.9034 -0.29261,1.9835 -7.4933,3.26454 -14.112,2.96451 -8.0499,-0.36492 -11.90328,0.85805 -13.48454,-3.16396 -0.16183,-0.41163 -1.40432,-0.71004 -0.99421,-2.66861 0,0 -1.011,-0.54327 -0.68901,-1.75429 0.31171,-1.17234 0.78898,-0.84791 0.84859,-2.50333 0.0257,-0.71314 0.93706,-1.7548 0.93706,-1.7548 0.0331,-1.22355 1.48527,-1.65916 1.48527,-1.65916 0.86758,-3.35695 6.70708,-5.42181 12.78329,-4.7166 7.03409,0.81638 11.45726,0.22889 12.00776,5.16191 0,0 1.20039,0.30285 1.23892,1.61835 0,0 2.18033,1.72968 1.08716,1.72968 z"
       sodipodi:nodetypes="sssssscsssssssss"
       inkscape:export-filename="/home/beghelli/dev/gamedev.js-jam-2023/tests/platform/dist/assets/player.png"
       inkscape:export-xdpi="96"
       inkscape:export-ydpi="96" />
    <path
       id="path41697"
       style="fill:#a700e2;stroke-width:1.94005"
       d="m 543.3911,183.87751 c 5e-5,0 0.88532,2.11349 -0.0518,2.33014 0,0 0.13911,0.89275 0.0437,1.4779 -0.17725,1.08648 -1.42363,0.89863 -1.54649,1.59768 -0.29261,1.6649 -6.66413,2.74018 -13.28283,2.48834 -8.0499,-0.3063 -11.83746,0.30886 -13.41872,-3.06714 -0.16183,-0.34551 -1.47014,-0.18462 -1.06003,-1.82859 0,0 -1.011,-0.45601 -0.68901,-1.47252 0.31171,-0.98404 0.40612,-0.45473 0.46573,-1.84425 0.0257,-0.59859 0.93706,-1.47294 0.93706,-1.47294 0.0331,-1.02703 1.48527,-1.39267 1.48527,-1.39267 0.86758,-2.81775 6.70708,-5.39245 12.78329,-4.80051 7.03409,0.68525 11.45726,1.03362 12.00776,5.17429 0,0 1.20039,0.25421 1.23892,1.35841 0,0 2.18034,1.45186 1.08716,1.45186 z"
       sodipodi:nodetypes="cssssscssssssssc"
       inkscape:export-filename="/home/beghelli/dev/gamedev.js-jam-2023/tests/platform/dist/assets/player.png"
       inkscape:export-xdpi="96"
       inkscape:export-ydpi="96" />
    <path
       id="path41701"
       style="fill:#c300b1;fill-opacity:1;stroke-width:1.94005"
       d="m 543.3911,183.87751 c 5e-5,0 0.88532,2.11349 -0.0518,2.33014 0,0 0.13911,0.89275 0.0437,1.4779 -0.17725,1.08648 -1.42363,0.89863 -1.54649,1.59768 -0.29261,1.6649 -6.66413,2.74018 -13.28283,2.48834 -8.0499,-0.3063 -11.83746,0.30886 -13.41872,-3.06714 -0.16183,-0.34551 -1.47014,-0.18462 -1.06003,-1.82859 0,0 -1.011,-0.45601 -0.68901,-1.47252 0.31171,-0.98404 0.40612,-0.45473 0.46573,-1.84425 0.0257,-0.59859 0.93706,-1.47294 0.93706,-1.47294 0.0331,-1.02703 1.48527,-1.39267 1.48527,-1.39267 0.86758,-2.81775 6.70708,-5.39245 12.78329,-4.80051 7.03409,0.68525 11.45726,1.03362 12.00776,5.17429 0,0 1.20039,0.25421 1.23892,1.35841 0,0 2.18034,1.45186 1.08716,1.45186 z"
       sodipodi:nodetypes="cssssscssssssssc"
       inkscape:export-filename="/home/beghelli/dev/gamedev.js-jam-2023/tests/platform/dist/assets/player.png"
       inkscape:export-xdpi="96"
       inkscape:export-ydpi="96" />
    <path
       id="path41705"
       style="fill:#a700e2;stroke-width:1.63592"
       d="m 610.30089,185.9474 c -0.0518,1.65683 0.88532,1.50278 -0.0518,1.65683 0,0 0.13911,0.63479 0.0437,1.05086 -0.17725,0.77253 -1.22065,0.74106 -1.54649,1.13602 -1.50258,1.82131 -7.65258,2.23319 -14.15149,1.991 -8.04726,-0.29988 -13.85672,0.2913 -15.43798,-2.10919 -0.16183,-0.24567 -0.49157,-0.1616 -0.0815,-1.33055 0,0 -0.4035,-0.40132 -0.0815,-1.1241 0.31171,-0.6997 0.40612,-0.32334 0.46573,-1.31135 0.0257,-0.42563 0.93706,-1.04733 0.93706,-1.04733 0.0331,-0.73026 1.57212,-0.61003 1.57212,-0.61003 0.86758,-2.00356 7.30855,-3.58538 13.38476,-3.16449 7.03409,0.48725 12.07079,-0.0801 12.62129,2.8641 0,0 1.20039,0.18076 1.23892,0.96589 0,0 2.18034,1.03234 1.08716,1.03234 z"
       sodipodi:nodetypes="cssssscssssssssc"
       inkscape:export-filename="/home/beghelli/dev/gamedev.js-jam-2023/tests/platform/dist/assets/player.png"
       inkscape:export-xdpi="96"
       inkscape:export-ydpi="96" />
    <path
       id="path41709"
       style="fill:#c300b1;fill-opacity:1;stroke-width:1.63592"
       d="m 610.30089,185.9474 c -0.0518,1.65683 0.88532,1.50278 -0.0518,1.65683 0,0 0.13911,0.63479 0.0437,1.05086 -0.17725,0.77253 -1.22065,0.74106 -1.54649,1.13602 -1.50258,1.82131 -7.65258,2.23319 -14.15149,1.991 -8.04726,-0.29988 -13.85672,0.2913 -15.43798,-2.10919 -0.16183,-0.24567 -0.49157,-0.1616 -0.0815,-1.33055 0,0 -0.4035,-0.40132 -0.0815,-1.1241 0.31171,-0.6997 0.40612,-0.32334 0.46573,-1.31135 0.0257,-0.42563 0.93706,-1.04733 0.93706,-1.04733 0.0331,-0.73026 1.57212,-0.61003 1.57212,-0.61003 0.86758,-2.00356 7.30855,-3.58538 13.38476,-3.16449 7.03409,0.48725 12.07079,-0.0801 12.62129,2.8641 0,0 1.20039,0.18076 1.23892,0.96589 0,0 2.18034,1.03234 1.08716,1.03234 z"
       sodipodi:nodetypes="cssssscssssssssc"
       inkscape:export-filename="/home/beghelli/dev/gamedev.js-jam-2023/tests/platform/dist/assets/player.png"
       inkscape:export-xdpi="96"
       inkscape:export-ydpi="96" />
    <path
       id="path41717"
       style="fill:#e200e2;fill-opacity:1;stroke-width:1.21629"
       d="m 709.11976,188.54787 c -0.0518,0.91586 0.88532,0.83071 -0.0518,0.91586 0,0 0.13911,0.3509 0.0437,0.5809 -0.17725,0.42704 -1.22065,0.40964 -1.54649,0.62797 -1.50258,1.00678 -7.65258,1.23446 -14.15149,1.10059 -8.04726,-0.16577 -13.85672,0.16102 -15.43798,-1.16593 -0.16183,-0.1358 -0.49157,-0.0893 -0.0815,-0.7355 0,0 -0.4035,-0.22184 -0.0815,-0.62138 0.31171,-0.38678 0.40612,-0.17873 0.46573,-0.72489 0.0257,-0.23528 0.93706,-0.57894 0.93706,-0.57894 0.0331,-0.40368 1.57212,-0.33722 1.57212,-0.33722 0.86758,-1.10752 7.30855,-1.98193 13.38476,-1.74926 7.03409,0.26934 12.07079,-0.0443 12.62129,1.58322 0,0 1.20039,0.0999 1.23892,0.53392 0,0 2.18034,0.57066 1.08716,0.57066 z"
       sodipodi:nodetypes="cssssscssssssssc"
       inkscape:export-filename="/home/beghelli/dev/gamedev.js-jam-2023/tests/platform/dist/assets/player.png"
       inkscape:export-xdpi="96"
       inkscape:export-ydpi="96" />
    <path
       id="path41721"
       style="fill:#a700e2;stroke-width:2.11755"
       d="m 312.5681,176.82725 c 0,8.27367 -6.70714,14.98082 -14.98082,14.98082 -8.27368,0 -14.98082,-6.70715 -14.98082,-14.98082 0,-8.27368 6.62985,-13.3586 14.90353,-13.3586 8.27368,0 15.05811,5.08492 15.05811,13.3586 z"
       sodipodi:nodetypes="sssss"
       inkscape:export-filename="/home/beghelli/dev/gamedev.js-jam-2023/tests/platform/dist/assets/player.png"
       inkscape:export-xdpi="96"
       inkscape:export-ydpi="96" />
  </g>
</svg>
